<svg width="162" height="33" viewBox="0 0 162 33" fill="none" xmlns="http://www.w3.org/2000/svg">
<path d="M99.3206 15.1857C102.098 16.0737 103.443 17.0857 104.263 18.7508C104.575 20.1002 104.559 21.4585 104.54 22.816C104.533 23.4516 104.549 24.0861 104.568 24.7215C104.588 26.9443 104.522 28.8947 101.86 30.7391C99.6871 31.8853 97.6939 32.1049 94.6527 32.1739C91.0877 32.097 89.1207 31.6657 86.6814 30.3167C84.8424 29.0403 84.6849 27.7539 84.812 26.1807C85.2103 24.8036 86.1957 23.8589 88.2693 23.0013C91.1527 22.0568 93.9096 22.0304 97.2053 22.0508C97.5612 22.0519 97.917 22.0531 98.2836 22.0542C99.1555 22.0572 100.027 22.0618 100.899 22.0667C100.789 21.4069 100.668 20.7487 100.539 20.0899C100.509 19.9038 100.479 19.7177 100.449 19.5259C100.267 18.6418 100.062 18.0711 99.0297 17.3598C97.0859 16.6031 95.058 16.5891 92.7307 16.7102C91.3412 16.889 91.3412 16.889 90.3283 17.4754C89.5612 18.3044 88.9598 19.1512 88.4063 20.0261C87.4549 20.0261 86.5035 20.0261 85.5233 20.0261C85.3009 18.5799 85.773 17.5954 87.4453 16.4551C90.6313 14.7418 95.0354 14.3282 99.3206 15.1857ZM89.6376 24.6015C88.0962 25.6816 88.1098 26.8883 88.4063 28.1884C88.9922 29.0442 89.7229 29.7702 91.2104 30.2709C93.1301 30.6645 95.0377 30.6513 97.0552 30.4841C98.9308 29.974 100.108 29.2178 100.899 28.1884C101.03 27.6473 101.03 27.6473 100.993 27.0844C100.99 26.8806 100.987 26.6767 100.984 26.4667C100.976 26.2563 100.967 26.0458 100.959 25.829C100.955 25.6146 100.951 25.4003 100.946 25.1794C100.935 24.6519 100.918 24.1245 100.899 23.5971C94.9368 23.3999 94.9368 23.3999 89.6376 24.6015Z" fill="white"/>
<path d="M48.9458 15.1957C51.3429 15.9846 53.2507 17.0902 54.2913 18.4956C54.3951 19.1989 54.4488 19.8757 54.4527 20.5791C54.4559 20.7817 54.4591 20.9842 54.4624 21.193C54.4673 21.6216 54.4695 22.0501 54.4694 22.4787C54.4715 23.1282 54.4889 23.7772 54.5071 24.4266C54.5392 26.835 54.5292 28.841 51.5134 30.779C51.2409 30.8921 50.9684 31.0052 50.6876 31.1217C50.2788 31.2993 50.2788 31.2993 49.8617 31.4804C47.3754 32.2909 44.1158 32.2064 41.318 32.0145C38.3668 31.3873 36.8485 30.5116 35.4859 29.0244C34.7933 28.0533 34.7781 27.122 34.7825 26.093C34.7784 25.8749 34.7743 25.6567 34.77 25.432C34.7646 24.9735 34.764 24.515 34.7682 24.0565C34.7712 23.3604 34.7487 22.6654 34.7243 21.9695C34.6696 17.9522 34.6696 17.9522 37.1878 16.331C40.4443 14.6911 44.6564 14.386 48.9458 15.1957ZM39.396 17.4754C38.0955 18.4478 38.2625 19.5626 38.2398 20.7086C38.2343 20.9237 38.2289 21.1388 38.2232 21.3605C38.2142 21.8152 38.2079 22.27 38.2042 22.7247C38.1948 23.4169 38.165 24.1082 38.1347 24.8002C38.1284 25.2431 38.1234 25.686 38.1197 26.1289C38.1078 26.3341 38.096 26.5392 38.0837 26.7506C38.1045 28.1608 38.7782 28.873 40.6046 29.8948C42.1388 30.6134 43.5583 30.5532 45.5204 30.5398C47.4921 30.4382 48.5761 29.9795 49.8467 29.2087C51.0425 28.193 51.005 27.2366 51.0086 26.0801C51.0102 25.8985 51.0117 25.717 51.0134 25.53C51.0158 25.1458 51.017 24.7616 51.0169 24.3774C51.0179 23.7941 51.0266 23.2109 51.0358 22.6276C51.0372 22.2533 51.0381 21.879 51.0386 21.5047C51.042 21.3322 51.0455 21.1597 51.049 20.982C51.0364 19.5614 50.7621 18.2479 49.0359 17.1246C47.2654 16.3841 45.5453 16.3692 43.3788 16.3823C41.6704 16.4953 40.6701 16.8815 39.396 17.4754Z" fill="white"/>
<path d="M73.0305 14.9247C75.6454 15.5692 77.612 16.6915 78.8572 18.0783C79.303 18.7925 79.3931 19.3394 79.386 20.0898C79.386 20.3501 79.3859 20.6104 79.3858 20.8787C79.3809 21.1567 79.3759 21.4346 79.3708 21.721C79.3694 22.0079 79.3681 22.2949 79.3667 22.5905C79.3613 23.5053 79.3492 24.4201 79.337 25.3349C79.3322 25.9558 79.3278 26.5767 79.3239 27.1976C79.3133 28.7182 79.2972 30.2389 79.2769 31.7595C78.167 31.7595 77.0571 31.7595 75.9135 31.7595C75.9077 31.5353 75.9077 31.5353 75.9017 31.3067C75.8603 29.7466 75.8124 28.1866 75.761 26.6266C75.7426 26.045 75.7259 25.4633 75.7108 24.8817C75.6888 24.044 75.6609 23.2063 75.6319 22.3687C75.6264 22.1101 75.6208 21.8515 75.6151 21.585C75.5459 19.1869 75.5459 19.1869 73.511 17.1088C71.4307 16.5336 69.5621 16.4719 67.2646 16.7102C65.9076 17.2689 65.1432 17.6872 64.3816 18.4957C64.3245 18.9202 64.2965 19.3458 64.283 19.7712C64.2734 20.0367 64.2638 20.3023 64.254 20.5758C64.2459 20.8633 64.2379 21.1508 64.2296 21.447C64.2196 21.7407 64.2096 22.0344 64.1994 22.3369C64.1679 23.2778 64.1396 24.2186 64.1114 25.1595C64.0906 25.7962 64.0697 26.4329 64.0485 27.0695C63.997 28.6328 63.9481 30.1961 63.9012 31.7595C62.7912 31.7595 61.6813 31.7595 60.5377 31.7595C60.4888 29.9079 60.4552 28.0564 60.4321 26.2047C60.4225 25.5753 60.4094 24.9459 60.3927 24.3166C60.3693 23.4098 60.3585 22.5033 60.35 21.5965C60.3401 21.3169 60.3302 21.0373 60.3199 20.7492C60.319 19.0991 60.6271 17.8232 62.4597 16.4552C65.6873 14.8274 68.689 14.6948 73.0305 14.9247Z" fill="white"/>
<path d="M25.3428 0.128121C25.7529 0.129249 26.163 0.130378 26.5856 0.131541C27.0119 0.134475 27.4382 0.137409 27.8775 0.140432C28.5254 0.142802 28.5254 0.142802 29.1864 0.145219C30.2522 0.149344 31.3179 0.155104 32.3836 0.162318C32.3836 0.855671 32.3836 1.54902 32.3836 2.26339C31.8235 2.27242 31.2633 2.28144 30.6862 2.29074C29.9415 2.31046 29.1968 2.33054 28.4521 2.35093C27.9001 2.35838 27.9001 2.35838 27.3369 2.36598C24.7932 2.44532 23.2474 2.77314 21.2544 4.01428C19.8962 5.36409 19.6094 6.34704 19.5552 8.00439C19.538 8.42533 19.5209 8.84626 19.5032 9.27995C19.4868 9.93436 19.4868 9.93436 19.4701 10.602C19.4536 11.0451 19.4371 11.4881 19.42 11.9446C19.3802 13.0363 19.3487 14.1281 19.3189 15.22C23.1512 15.22 23.2115 15.22 27.16 15.22C27.16 15.9133 27.16 16.6067 27.16 17.321C23.3277 17.321 23.2673 17.321 19.3189 17.321C19.3189 22.1745 19.3189 27.028 19.3189 32.0285C18.2012 32.0285 17.0834 32.0285 15.9318 32.0285C15.8756 28.613 15.8326 25.1976 15.8064 21.7819C15.7938 20.1956 15.7768 18.6095 15.7492 17.0233C15.7228 15.4907 15.7085 13.9582 15.7022 12.4255C15.6978 11.8426 15.6891 11.2597 15.676 10.6769C15.5447 4.60073 15.5447 4.60073 18.3512 2.26339C20.4802 0.870967 22.4579 0.114109 25.3428 0.128121Z" fill="white"/>
<path d="M128.287 15.1797C129.239 15.1797 130.19 15.1797 131.17 15.1797C131.17 17.3682 131.17 19.5567 131.17 21.8116C134.16 21.7615 134.16 21.7615 137.149 21.6967C140.223 21.6709 142.273 22.0171 144.624 23.0869C146.814 24.5771 147.417 25.8282 147.026 27.6782C146.16 29.3026 144.847 30.3107 142.222 31.2492C140.521 31.6738 139.18 31.8246 137.306 31.8271C136.609 31.8281 136.609 31.8281 135.897 31.8291C135.418 31.8271 134.938 31.8252 134.444 31.8231C133.716 31.8261 133.716 31.8261 132.973 31.8291C132.51 31.8284 132.047 31.8278 131.57 31.8271C131.147 31.8265 130.725 31.826 130.29 31.8254C129.248 31.7594 129.248 31.7594 128.287 31.2492C128.172 30.5778 128.172 30.5778 128.178 29.7162C128.178 29.3945 128.178 29.0728 128.178 28.7414C128.183 28.389 128.188 28.0366 128.193 27.6842C128.195 27.3246 128.197 26.9651 128.198 26.6055C128.201 25.6587 128.211 24.7118 128.221 23.765C128.231 22.799 128.235 21.833 128.24 20.867C128.251 18.9712 128.267 17.0755 128.287 15.1797ZM131.17 23.0869C131.17 25.4438 131.17 27.8006 131.17 30.2289C133.118 30.2526 133.118 30.2526 135.104 30.2768C135.509 30.2837 135.913 30.2907 136.33 30.2979C139.195 30.3147 140.694 29.9596 142.852 28.9376C144.039 27.8409 143.969 26.8738 143.663 25.6376C143.044 24.6871 142.581 24.2527 141.08 23.6449C137.763 22.8483 134.944 23.0869 131.17 23.0869Z" fill="white"/>
<path d="M123.482 15.1796C123.482 15.6846 123.482 16.1896 123.482 16.71C122.9 16.7243 122.9 16.7243 122.306 16.7389C121.792 16.7557 121.279 16.7724 120.75 16.7897C120.242 16.8045 119.735 16.8193 119.212 16.8345C117.141 17.0152 115.901 17.3633 114.54 18.214C113.518 19.4261 113.641 20.6062 113.627 21.92C113.618 22.2013 113.609 22.4826 113.6 22.7724C113.574 23.669 113.558 24.5655 113.542 25.4621C113.526 26.0708 113.51 26.6794 113.492 27.288C113.452 28.7784 113.419 30.2688 113.392 31.7592C112.441 31.7592 111.489 31.7592 110.509 31.7592C110.46 29.903 110.427 28.0468 110.403 26.1904C110.394 25.5593 110.381 24.9282 110.364 24.2971C110.341 23.3885 110.33 22.48 110.321 21.5713C110.311 21.2904 110.301 21.0095 110.291 20.7201C110.29 18.7888 110.788 17.6425 113.328 16.2008C116.58 14.9616 119.583 15.0206 123.482 15.1796Z" fill="white"/>
</svg>
