<svg width="32" height="32" viewBox="0 0 32 32" fill="none" xmlns="http://www.w3.org/2000/svg">
<path d="M30.8414 8.13623C30.7968 7.89448 30.7018 7.6648 30.5627 7.4621C30.4235 7.25941 30.2433 7.08824 30.0337 6.95969L25.4181 11.5736C25.2029 11.7968 24.9448 11.9744 24.6593 12.0957C24.3738 12.217 24.0668 12.2796 23.7565 12.2796C23.4463 12.2796 23.1393 12.217 22.8538 12.0957C22.5683 11.9744 22.3102 11.7968 22.095 11.5736L20.3411 10.0049C19.9182 9.57362 19.6814 8.99384 19.6814 8.39C19.6814 7.78615 19.9182 7.20637 20.3411 6.77514L24.9566 2.16126C24.8559 1.92489 24.7045 1.71351 24.5131 1.54209C24.3217 1.37068 24.0949 1.2434 23.8489 1.16928C22.2384 0.848247 20.5702 0.985667 19.0341 1.5659C17.498 2.14613 16.1557 3.14585 15.1601 4.45125C14.1644 5.75665 13.5554 7.31527 13.4025 8.94967C13.2495 10.5841 13.5586 12.2286 14.2947 13.696L1.69435 26.1765C1.47454 26.3913 1.2999 26.6479 1.18066 26.9312C1.06142 27.2144 1 27.5186 1 27.8259C1 28.1333 1.06142 28.4375 1.18066 28.7207C1.2999 29.004 1.47454 29.2606 1.69435 29.4754L2.52514 30.3059C2.74007 30.5256 2.99674 30.7002 3.2801 30.8194C3.56345 30.9386 3.86777 31 4.17519 31C4.48261 31 4.78693 30.9386 5.07029 30.8194C5.35364 30.7002 5.61032 30.5256 5.82524 30.3059L18.4256 17.7331C19.8939 18.4324 21.5275 18.7109 23.1446 18.5376C24.7618 18.3643 26.2992 17.746 27.5858 16.7515C28.8725 15.7569 29.858 14.4251 30.4327 12.9042C31.0075 11.3832 31.1489 9.73275 30.8414 8.13623V8.13623Z" stroke="#6C4218" stroke-linecap="round" stroke-linejoin="round"/>
</svg>
