<svg width="23" height="32" viewBox="0 0 23 32" fill="none" xmlns="http://www.w3.org/2000/svg">
<path d="M22.0226 11.4907C22.0355 9.63102 21.5503 7.80175 20.6175 6.19285C19.6846 4.58395 18.3381 3.25407 16.7178 2.34127C15.0974 1.42847 13.2623 0.966023 11.4029 1.00194C9.54344 1.03786 7.72752 1.57084 6.14363 2.54554C4.55975 3.52024 3.26562 4.90114 2.39562 6.54486C1.52562 8.18859 1.11145 10.0352 1.19611 11.8931C1.28076 13.7509 1.86117 15.5522 2.87706 17.11C3.89295 18.6678 5.3073 19.9253 6.97327 20.7519V24.2248C6.97327 24.5318 7.09524 24.8263 7.31234 25.0434C7.52944 25.2605 7.82389 25.3825 8.13092 25.3825H15.0768C15.3838 25.3825 15.6783 25.2605 15.8954 25.0434C16.1125 24.8263 16.2344 24.5318 16.2344 24.2248V20.7519C17.9651 19.8992 19.4236 18.5808 20.4461 16.9448C21.4686 15.3088 22.0146 13.42 22.0226 11.4907V11.4907Z" stroke="#6C4218" stroke-linecap="round" stroke-linejoin="round"/>
<path d="M6.97314 31.1705H16.2343" stroke="#6C4218" stroke-linecap="round" stroke-linejoin="round"/>
</svg>
