<svg width="27" height="32" viewBox="0 0 27 32" fill="none" xmlns="http://www.w3.org/2000/svg">
<path d="M1 31H26.4682" stroke="#6C4218" stroke-linecap="round" stroke-linejoin="round"/>
<path d="M8.94586 23.0087L2 24.2589L3.15764 17.2204L18.7395 1.68486C18.9548 1.46785 19.2108 1.29561 19.493 1.17806C19.7751 1.06052 20.0777 1 20.3834 1C20.689 1 20.9916 1.06052 21.2738 1.17806C21.5559 1.29561 21.812 1.46785 22.0272 1.68486L24.4814 4.13906C24.6984 4.3543 24.8707 4.61037 24.9882 4.89251C25.1058 5.17465 25.1663 5.47727 25.1663 5.78292C25.1663 6.08856 25.1058 6.39118 24.9882 6.67332C24.8707 6.95546 24.6984 7.21153 24.4814 7.42677L8.94586 23.0087Z" stroke="#6C4218" stroke-linecap="round" stroke-linejoin="round"/>
</svg>
