<svg width="26" height="26" viewBox="0 0 26 26" fill="none" xmlns="http://www.w3.org/2000/svg">
<path d="M19.9281 7.6073C19.0672 7.60898 18.3672 6.91189 18.3655 6.05094C18.3638 5.18999 19.0609 4.48995 19.9222 4.48827C20.7836 4.48658 21.4836 5.18409 21.4853 6.04504C21.4866 6.90599 20.7895 7.60561 19.9281 7.6073Z" fill="white"/>
<path fill-rule="evenodd" clip-rule="evenodd" d="M13.0124 19.6744C9.32651 19.6816 6.33219 16.6995 6.32504 13.0126C6.31787 9.32666 9.3008 6.33188 12.9867 6.32472C16.6735 6.31756 19.6682 9.30139 19.6754 12.9869C19.6826 16.6738 16.6988 19.6673 13.0124 19.6744ZM12.9914 8.66705C10.599 8.67127 8.66227 10.6151 8.66648 13.008C8.67111 15.4013 10.6154 17.3376 13.0078 17.3329C15.4011 17.3283 17.3378 15.3849 17.3331 12.9916C17.3285 10.5983 15.3842 8.66242 12.9914 8.66705Z" fill="white"/>
<path fill-rule="evenodd" clip-rule="evenodd" d="M4.46247 0.700352C5.28803 0.376865 6.23278 0.155309 7.616 0.0900231C9.00262 0.0234787 9.44528 0.00831027 12.9749 0.00157367C16.5055 -0.00516293 16.9481 0.00830767 18.3347 0.0698029C19.7184 0.129613 20.6636 0.347803 21.4908 0.667923C22.3467 0.997722 23.0728 1.44168 23.7964 2.16236C24.5201 2.88388 24.9657 3.60752 25.2997 4.46215C25.6228 5.28856 25.8443 6.23248 25.91 7.61657C25.9757 9.00275 25.9917 9.44501 25.9985 12.9751C26.0052 16.5049 25.9909 16.948 25.9302 18.3354C25.87 19.7182 25.6523 20.6638 25.3321 21.4907C25.0015 22.3466 24.5584 23.0727 23.8377 23.7964C23.117 24.5204 22.3926 24.9656 21.538 25.3001C20.7116 25.6227 19.7677 25.8443 18.3844 25.9104C16.9978 25.9761 16.5552 25.9917 13.0242 25.9984C9.49498 26.0052 9.05231 25.9917 7.66572 25.9306C6.28206 25.87 5.33647 25.6522 4.50964 25.3325C3.65377 25.0014 2.92762 24.5587 2.20399 23.8376C1.47995 23.1165 1.03392 22.3925 0.70033 21.5379C0.376846 20.7119 0.156116 19.7675 0.0899954 18.3847C0.0238722 16.9977 0.00829299 16.5546 0.00155899 13.0249C-0.00520101 9.49472 0.00870639 9.05246 0.0693514 7.66584C0.130433 6.28176 0.347356 5.33657 0.667474 4.5089C0.998105 3.65342 1.44121 2.92769 2.16273 2.20364C2.8834 1.48001 3.60786 1.03352 4.46247 0.700352ZM5.35333 23.1485C5.81202 23.325 6.50025 23.5356 7.76765 23.5908C9.13907 23.6502 9.54973 23.6633 13.02 23.6565C16.4915 23.6502 16.9022 23.6354 18.2732 23.571C19.5394 23.5108 20.2276 23.2976 20.685 23.119C21.292 22.8819 21.7241 22.5984 22.1782 22.144C22.6322 21.6878 22.9132 21.2544 23.1482 20.6474C23.3251 20.1883 23.5353 19.4996 23.5905 18.2322C23.6507 16.8616 23.6633 16.4505 23.6566 12.9794C23.6503 9.50903 23.6355 9.09794 23.5703 7.72692C23.5104 6.46034 23.2977 5.77209 23.1187 5.31508C22.8816 4.70729 22.599 4.27598 22.1432 3.82149C21.6875 3.36701 21.2541 3.0869 20.6463 2.85187C20.1884 2.67455 19.4993 2.46478 18.2328 2.40961C16.8614 2.34938 16.4503 2.33715 12.9792 2.3439C9.50888 2.35064 9.09822 2.36453 7.72721 2.42941C6.46024 2.48963 5.77283 2.70234 5.31456 2.88136C4.70803 3.11849 4.27588 3.40028 3.82141 3.85645C3.36777 4.31261 3.08683 4.74519 2.85181 5.35341C2.67576 5.81169 2.46387 6.50078 2.40955 7.76735C2.34973 9.13879 2.33711 9.5499 2.34384 13.0202C2.35017 16.4914 2.3649 16.9025 2.42935 18.2727C2.48873 19.5401 2.70311 20.2275 2.8813 20.6862C3.11843 21.2923 3.40106 21.7244 3.85638 22.1789C4.31254 22.6317 4.74595 22.9135 5.35333 23.1485Z" fill="white"/>
</svg>
