<svg width="26" height="20" viewBox="0 0 26 20" fill="none" xmlns="http://www.w3.org/2000/svg">
<path fill-rule="evenodd" clip-rule="evenodd" d="M24.6163 2.23699C25.0197 2.64298 25.3094 3.14781 25.4564 3.70094C26 5.74253 26 10 26 10C26 10 26 14.2575 25.4564 16.2991C25.3094 16.8523 25.0197 17.3571 24.6163 17.7631C24.2129 18.1691 23.7099 18.462 23.1577 18.6125C21.125 19.1591 13 19.1591 13 19.1591C13 19.1591 4.875 19.1591 2.84227 18.6125C2.29009 18.462 1.78713 18.1691 1.38373 17.7631C0.980326 17.3571 0.690631 16.8523 0.543636 16.2991C6.45717e-08 14.2575 0 10 0 10C0 10 6.45717e-08 5.74253 0.543636 3.70094C0.690631 3.14781 0.980326 2.64298 1.38373 2.23699C1.78713 1.83099 2.29009 1.53807 2.84227 1.38753C4.875 0.840942 13 0.840942 13 0.840942C13 0.840942 21.125 0.840942 23.1577 1.38753C23.7099 1.53807 24.2129 1.83099 24.6163 2.23699ZM17.1364 10.0001L10.3409 6.13404V13.8661L17.1364 10.0001Z" fill="white"/>
</svg>
